<svg width="107" height="93" viewBox="0 0 107 93" fill="none" xmlns="http://www.w3.org/2000/svg">
<path d="M11.1069 24.2602L32.8725 35.454C34.3235 42.9165 37.3499 58.5879 37.8474 61.5729C38.3449 64.5579 39.2985 64.0604 39.7131 63.4385L47.1756 45.4042C53.187 48.9281 66.2049 56.3492 70.1849 57.8417C74.1649 59.3342 75.5745 57.2198 75.7818 55.976C85.1099 40.0145 104.264 7.09649 106.254 3.11649C108.244 -0.863508 105.425 -0.200174 103.766 0.628992C73.9162 6.43316 13.5944 18.4146 11.1069 19.9071C8.61938 21.3996 10.0704 23.4311 11.1069 24.2602Z" fill="#16B14C"/>
<path d="M38.5271 63.5L33.0271 36.5L95.5522 7.4624L47.5271 43.5L43.0271 55L39.5271 63.5H38.5271Z" fill="#067332"/>
<line x1="7.21259" y1="56.2014" x2="18.0818" y2="44.8085" stroke="#16B14C" stroke-width="2" stroke-linecap="round"/>
<line x1="0.999934" y1="62.0172" x2="4.4004" y2="58.4835" stroke="#16B14C" stroke-width="2" stroke-linecap="round"/>
<line x1="15.9189" y1="84.8074" x2="26.7881" y2="73.4145" stroke="#015B25" stroke-width="2" stroke-linecap="round"/>
<line x1="9.70623" y1="90.6236" x2="13.1067" y2="87.09" stroke="#015B25" stroke-width="2" stroke-linecap="round"/>
<line x1="55.7189" y1="84.8074" x2="66.5881" y2="73.4145" stroke="#16B14C" stroke-width="2" stroke-linecap="round"/>
<line x1="49.5063" y1="90.6236" x2="52.9067" y2="87.09" stroke="#16B14C" stroke-width="2" stroke-linecap="round"/>
</svg>
